<svg width="56" height="56" viewBox="0 0 56 56" fill="none" xmlns="http://www.w3.org/2000/svg">
<path d="M23 3H11C6.58172 3 3 6.58172 3 11V23C3 27.4183 6.58172 31 11 31H23C27.4183 31 31 27.4183 31 23V11C31 6.58172 27.4183 3 23 3Z" fill="#FFEDD5"/>
<path d="M44 22H31C26.0294 22 22 26.0294 22 31V44C22 48.9706 26.0294 53 31 53H44C48.9706 53 53 48.9706 53 44V31C53 26.0294 48.9706 22 44 22Z" fill="#EA580C"/>
<path d="M33 44.5V38.5M35.8235 46V36M38.6471 46V36M40.7647 34.6471L44.2941 31.8235L40.7647 29M42 44.5V38.5M33 31.8235H44.2941" stroke="white" stroke-width="1.48235" stroke-linecap="round" stroke-linejoin="round"/>
<path d="M13 19V13M17 22V10M21 22V13" stroke="#EA580C" stroke-width="2.1" stroke-linecap="round"/>
</svg>
