<svg width="56" height="56" viewBox="0 0 56 56" fill="none" xmlns="http://www.w3.org/2000/svg">
<path d="M23 3H11C6.58172 3 3 6.58172 3 11V23C3 27.4183 6.58172 31 11 31H23C27.4183 31 31 27.4183 31 23V11C31 6.58172 27.4183 3 23 3Z" fill="#ECFCCB"/>
<path d="M44 22H31C26.0294 22 22 26.0294 22 31V44C22 48.9706 26.0294 53 31 53H44C48.9706 53 53 48.9706 53 44V31C53 26.0294 48.9706 22 44 22Z" fill="#65A30D"/>
<path d="M12 20V14M16 23V11M20 23V14" stroke="#65A30D" stroke-width="2.1" stroke-linecap="round"/>
<path d="M37.1884 33.5V42.5M39.6413 31V44.5M42.0942 34.7V42M44.5471 37.1V40.1M34.8617 38.3H29M32.6072 40.7L34.8617 38.3L32.6072 35.7941" stroke="white" stroke-width="1.428" stroke-linecap="round" stroke-linejoin="round"/>
</svg>
